<svg aria-hidden="true" style="position: absolute; width: 0; height: 0; overflow: hidden;" version="1.1" xmlns="http://www.w3.org/2000/svg" xmlns:xlink="http://www.w3.org/1999/xlink">
<defs>
<symbol id="icon-record_voice_over" viewBox="0 0 24 24">
<path d="M20.063 2.016q2.906 3.047 2.906 7.055t-2.906 6.914l-1.641-1.594q2.063-2.391 2.063-5.461t-2.063-5.32zM16.781 5.344q1.5 1.641 1.5 3.703t-1.5 3.563l-1.688-1.688q0.656-0.891 0.656-1.945t-0.656-1.945zM9 15q2.531 0 5.273 1.102t2.742 2.883v2.016h-16.031v-2.016q0-1.781 2.742-2.883t5.273-1.102zM5.016 9q0-1.641 1.172-2.813t2.813-1.172 2.813 1.172 1.172 2.813-1.172 2.813-2.813 1.172-2.813-1.172-1.172-2.813z"></path>
</symbol>
<symbol id="icon-star_outline" viewBox="0 0 24 24">
<path d="M21.984 9.234l-7.172-0.609-2.813-6.609-2.813 6.609-7.172 0.609 5.438 4.734-1.641 7.031 6.188-3.75 6.188 3.75-1.641-7.031zM12 15.422l-3.75 2.25 0.984-4.266-3.328-2.906 4.406-0.375 1.688-4.031 1.688 4.031 4.406 0.375-3.328 2.906 0.984 4.266z"></path>
</symbol>
</defs>
</svg>
